:SAMPLES-PER-SECOND 30
:FRAME-RANGE 1-1086
:FULLY-SPECIFIED
:DEGREES
951
root  -82.4362 38.4051 -61.5869 -4.95493 -17.5491 4.26379
RightUpLeg  -19.176 -4.07482 -11.1107
RightLeg  60.8404 -2.38896 -5.13332
RightFoot  -4.63756 -0.574736 9.25302
RightToes  1.21801e-010 1.2921e-014 -6.02303e-014
Spine  -5.39329 1.88476 -1.39558
Spine1  10.7493 2.84774 -7.24533
HEad  25.2661 60.5706 8.91203
LeftShoulder1  0.114171 2.87225 -20.2138
LeftArm  3.80364 -0.110027 -56.327
LeftForeArm  30.3917 -4.19215 -13.0359
LeftHand  -0.0559672 4.40854 4.24606
RightShoulder  1.71438 2.23991 24.8298
RightArm  -31.5328 -5.59788 51.1858
RightForeArm  65.8659 -4.99487 0.742229
RightHand  0.0824099 -6.16807 -14.862
LeftUpLeg  -6.91159 -3.70077 -11.6909
LeftLeg  22.0436 1.75369 2.09932
LeftFoot  -10.6666 0.0235443 6.90287
LeftToes  3.79492e-011 -8.60219e-011 1.56273e-011
952
root  -82.9691 38.4359 -60.5361 -4.71628 -15.2328 3.9317
RightUpLeg  -20.5692 -4.06634 -10.9068
RightLeg  53.6438 -5.82257 -8.80228
RightFoot  -5.74518 -0.426934 7.9212
RightToes  1.21801e-010 1.2921e-014 -6.02303e-014
Spine  -5.65283 1.48069 -1.60127
Spine1  10.5422 2.48378 -6.82368
HEad  24.6137 60.8634 8.5997
LeftShoulder1  0.161367 2.68682 -19.8902
LeftArm  6.77988 -1.58853 -57.7611
LeftForeArm  28.3078 -6.9252 -12.564
LeftHand  -0.0627109 4.20607 4.28085
RightShoulder  1.64885 2.01063 24.9276
RightArm  -32.2945 -7.4711 51.1377
RightForeArm  65.9981 -4.94631 0.485661
RightHand  0.0980024 -6.30528 -14.6819
LeftUpLeg  -4.93063 -3.98171 -11.2984
LeftLeg  22.1222 -0.0705045 1.47839
LeftFoot  -12.1649 0.124679 7.14652
LeftToes  3.79492e-011 -8.60219e-011 1.56273e-011
953
root  -83.4665 38.5051 -59.4961 -4.27975 -13.232 3.37286
RightUpLeg  -21.239 -3.62696 -10.634
RightLeg  44.4639 -8.91495 -9.53639
RightFoot  -5.0065 -0.440219 7.32788
RightToes  1.21801e-010 1.2921e-014 -6.02303e-014
Spine  -5.96718 1.05719 -1.16814
Spine1  10.296 2.15934 -6.38218
HEad  23.7611 61.3576 7.87004
LeftShoulder1  0.15643 2.69819 -19.5424
LeftArm  10.2666 -2.61252 -58.9856
LeftForeArm  25.6096 -9.53122 -11.8409
LeftHand  -0.0714313 4.08016 4.7315
RightShoulder  1.57854 1.72168 25.3207
RightArm  -32.8134 -8.76456 50.7637
RightForeArm  67.0705 -4.86872 0.264505
RightHand  0.0423926 -5.86956 -14.3777
LeftUpLeg  -2.87874 -4.85433 -10.6573
LeftLeg  21.576 -0.999768 1.20171
LeftFoot  -13.2968 0.206157 7.37811
LeftToes  3.79492e-011 -8.60219e-011 1.56273e-011
954
root  -83.9541 38.5244 -58.4729 -3.90665 -11.4772 2.99097
RightUpLeg  -20.8996 -2.5904 -10.8863
RightLeg  33.5168 -9.94655 -7.25112
RightFoot  -4.19205 -0.563088 8.54004
RightToes  1.21801e-010 1.2921e-014 -6.02303e-014
Spine  -6.37726 0.704617 -0.771874
Spine1  10.4163 1.89234 -6.02618
HEad  22.3203 61.9619 6.42126
LeftShoulder1  0.17346 2.62491 -19.2423
LeftArm  13.3175 -3.26057 -60.0435
LeftForeArm  23.1449 -11.7858 -10.9317
LeftHand  -0.0774412 3.86324 4.58639
RightShoulder  1.50789 1.4788 25.4336
RightArm  -33.377 -9.65393 50.6135
RightForeArm  67.213 -4.81809 -0.000559946
RightHand  0.0314635 -5.78427 -14.2458
LeftUpLeg  -0.980628 -5.5957 -10.0381
LeftLeg  21.1824 -1.82043 0.860275
LeftFoot  -14.5376 0.299898 7.60015
LeftToes  3.79492e-011 -8.60219e-011 1.56273e-011
955
root  -84.4407 38.5114 -57.4499 -3.35287 -9.97383 2.72784
RightUpLeg  -19.874 -2.26548 -11.3016
RightLeg  21.242 -8.16196 -3.6885
RightFoot  -3.7575 -0.639255 9.23839
RightToes  1.21801e-010 1.2921e-014 -6.02303e-014
Spine  -6.92451 0.406881 -0.303195
Spine1  10.4813 1.66995 -5.76787
HEad  21.2099 62.8242 5.13841
LeftShoulder1  0.153254 2.7037 -19.2289
LeftArm  16.2282 -3.50586 -60.5781
LeftForeArm  20.8861 -13.5024 -10.1194
LeftHand  -0.0810283 3.83013 4.77997
RightShoulder  1.46538 1.3419 25.4416
RightArm  -33.9186 -10.4924 50.4741
RightForeArm  66.777 -4.79179 -0.249539
RightHand  0.110752 -6.43777 -14.3239
LeftUpLeg  0.636015 -6.24316 -9.40736
LeftLeg  20.7842 -2.60864 0.49728
LeftFoot  -15.7688 0.393374 7.70824
LeftToes  3.79492e-011 -8.60219e-011 1.56273e-011
956
root  -84.9542 38.4646 -56.3938 -2.68674 -9.03378 2.86298
RightUpLeg  -19.0456 -2.49242 -11.4799
RightLeg  9.89195 -4.03027 -1.69289
RightFoot  -3.72078 -0.685797 9.89196
RightToes  1.21801e-010 1.2921e-014 -6.02303e-014
Spine  -7.77465 0.361137 0.0868972
Spine1  10.6604 1.77539 -5.83665
HEad  20.3274 63.5016 4.07763
LeftShoulder1  0.133732 2.77515 -18.9696
LeftArm  17.6245 -3.25825 -60.9564
LeftForeArm  20.082 -14.3828 -9.62427
LeftHand  -0.0819603 3.64958 4.70169
RightShoulder  1.42385 1.21472 25.4023
RightArm  -34.5665 -11.3573 50.4148
RightForeArm  66.9744 -4.73092 -0.561571
RightHand  0.035213 -5.8285 -13.9249
LeftUpLeg  2.22064 -5.88528 -8.90246
LeftLeg  20.03 -3.91204 0.0232889
LeftFoot  -16.9201 0.475295 7.65259
LeftToes  3.79492e-011 -8.60219e-011 1.56273e-011
957
root  -85.4993 38.3615 -55.2929 -2.00388 -7.97102 3.11475
RightUpLeg  -18.6143 -5.96627 -10.5445
RightLeg  1.11228 3.7379 -1.68874
RightFoot  -5.43972 -0.551656 9.95765
RightToes  1.21801e-010 1.2921e-014 -6.02303e-014
Spine  -8.64308 0.196135 0.286665
Spine1  10.656 1.71539 -6.02747
HEad  19.5442 64.3506 2.98284
LeftShoulder1  0.0690578 3.03142 -19.0359
LeftArm  18.4013 -2.54035 -60.6808
LeftForeArm  19.7018 -14.7924 -9.39586
LeftHand  -0.0789526 3.7946 4.8815
RightShoulder  1.40432 1.18305 25.1765
RightArm  -35.2564 -12.3354 50.4869
RightForeArm  66.6774 -4.69066 -0.860374
RightHand  0.108028 -6.43831 -14.053
LeftUpLeg  3.72065 -5.48285 -8.42255
LeftLeg  19.5285 -5.40014 -0.3837
LeftFoot  -18.1561 0.553254 7.44551
LeftToes  3.79492e-011 -8.60219e-011 1.56273e-011
958
root  -86.1054 38.1381 -54.1514 -1.36414 -7.4236 3.73151
RightUpLeg  -19.2688 -6.13524 -10.5148
RightLeg  -2.25218 5.97762 -2.00829
RightFoot  -8.89958 -0.321602 12.1978
RightToes  1.21801e-010 1.2921e-014 -6.02303e-014
Spine  -8.95054 0.222517 0.116711
Spine1  9.83581 1.91444 -6.64091
HEad  19.0129 65.0925 2.08315
LeftShoulder1  -0.0286999 3.41485 -19.4977
LeftArm  17.5963 -1.64947 -59.7625
LeftForeArm  20.6727 -14.1356 -9.79691
LeftHand  -0.0781085 3.90208 4.88599
RightShoulder  1.35027 1.03884 24.9522
RightArm  -35.5614 -13.2062 50.3886
RightForeArm  66.5501 -4.67671 -0.968947
RightHand  0.0748626 -6.15584 -14.0896
LeftUpLeg  4.83502 -5.00834 -8.21709
LeftLeg  19.9869 -6.56074 -0.793071
LeftFoot  -19.7068 0.623165 6.89054
LeftToes  3.79492e-011 -8.60219e-011 1.56273e-011
959
root  -86.7166 37.9466 -53.0603 -1.08157 -7.47165 4.04749
RightUpLeg  -20.9817 -5.87281 -10.1136
RightLeg  1.1868 6.37783 -1.0726
RightFoot  -8.4429 -0.348737 11.4718
RightToes  1.21801e-010 1.2921e-014 -6.02303e-014
Spine  -8.49204 0.485129 0.715225
Spine1  9.25979 2.30178 -7.42922
HEad  17.071 66.0683 -0.45189
LeftShoulder1  -0.1439 3.8453 -20.3067
LeftArm  15.2612 -0.887993 -58.2294
LeftForeArm  22.3701 -12.6234 -10.6165
LeftHand  -0.0794703 3.87847 4.7964
RightShoulder  1.32817 1.01246 24.611
RightArm  -35.9807 -13.3951 50.4658
RightForeArm  66.2086 -4.65128 -1.19009
RightHand  0.0588807 -6.03241 -13.8902
LeftUpLeg  6.31326 -4.63257 -7.76153
LeftLeg  20.3542 -7.16499 -1.06047
LeftFoot  -20.8797 0.638613 6.14237
LeftToes  3.79492e-011 -8.60219e-011 1.56273e-011
960
root  -87.2844 37.9724 -52.0154 -0.755859 -6.51193 3.64941
RightUpLeg  -21.5889 -3.30201 -9.51552
RightLeg  4.89752 4.06737 -1.57807
RightFoot  -4.24005 -0.557374 8.50086
RightToes  1.21801e-010 1.2921e-014 -6.02303e-014
Spine  -8.35369 0.40272 1.84597
Spine1  9.64886 2.03819 -7.06009
HEad  14.3668 67.128 -3.90589
LeftShoulder1  -0.136372 3.80076 -21.2307
LeftArm  9.99464 0.29515 -56.2411
LeftForeArm  25.8697 -9.78777 -11.685
LeftHand  -0.0821211 3.8231 4.84613
RightShoulder  1.3193 1.03479 24.2285
RightArm  -36.1707 -13.2959 50.4922
RightForeArm  66.0342 -4.63606 -1.31574
RightHand  0.0593135 -6.02938 -14.0087
LeftUpLeg  8.14504 -5.61797 -6.64517
LeftLeg  19.7312 -7.54653 -1.32749
LeftFoot  -20.5843 0.507604 4.74566
LeftToes  3.79492e-011 -8.60219e-011 1.56273e-011
961
root  -87.8546 38.0626 -50.9643 -0.254883 -4.48249 3.23462
RightUpLeg  -21.8142 -1.0852 -9.45545
RightLeg  7.54922 2.23742 -2.35131
RightFoot  1.43792 -1.16916 10.5009
RightToes  1.21801e-010 1.2921e-014 -6.02303e-014
Spine  -7.97376 0.131315 2.8422
Spine1  9.17639 1.48233 -6.24497
HEad  14.6573 67.658 -4.68152
LeftShoulder1  -0.10046 3.66311 -21.7793
LeftArm  4.06801 1.63594 -54.6044
LeftForeArm  29.8219 -5.2308 -12.743
LeftHand  -0.0695966 4.16272 4.84846
RightShoulder  1.22029 0.703942 24.2499
RightArm  -35.4752 -13.6517 49.6876
RightForeArm  65.4893 -4.71977 -0.946039
RightHand  0.0717218 -6.12934 -14.0901
LeftUpLeg  9.19639 -8.6869 -5.60813
LeftLeg  20.0195 -6.9441 -2.00704
LeftFoot  -19.4649 0.317271 2.82109
LeftToes  3.79492e-011 -8.60219e-011 1.56273e-011
962
root  -88.4756 38.0707 -49.882 0.16507 -3.22815 2.44324
RightUpLeg  -22.8114 1.22671 -9.46935
RightLeg  12.1739 -0.5531 -1.48127
RightFoot  3.23519 -1.37776 10.9158
RightToes  1.21801e-010 1.2921e-014 -6.02303e-014
Spine  -7.37206 0.285772 4.34602
Spine1  8.48199 1.46848 -5.96883
HEad  15.3725 68.3567 -5.20641
LeftShoulder1  -0.175605 3.91981 -22.3612
LeftArm  -1.17804 2.80461 -53.5229
LeftForeArm  32.8547 -0.182923 -12.6978
LeftHand  -0.0528181 4.60159 4.75514
RightShoulder  1.17152 0.549709 24.1892
RightArm  -34.7782 -13.7848 48.7369
RightForeArm  64.6212 -4.80958 -0.607353
RightHand  0.0438049 -5.88956 -14.1906
LeftUpLeg  8.89239 -9.32409 -3.44689
LeftLeg  23.0877 -8.12622 -3.44554
LeftFoot  -18.2387 0.152098 0.707899
LeftToes  3.79492e-011 -8.60219e-011 1.56273e-011
963
root  -89.12 38.0532 -48.8393 0.517792 -2.9335 1.54559
RightUpLeg  -23.4564 1.14112 -8.14671
RightLeg  15.9599 -0.939786 -0.623524
RightFoot  3.12562 -1.40752 11.2256
RightToes  1.21801e-010 1.2921e-014 -6.02303e-014
Spine  -7.00725 0.784959 5.85047
Spine1  8.45473 1.88246 -5.77401
HEad  15.2151 69.5806 -6.09966
LeftShoulder1  -0.2368 4.12902 -22.5593
LeftArm  -4.13761 4.43813 -53.0053
LeftForeArm  32.241 3.56496 -11.9478
LeftHand  -0.0392779 4.95152 4.43939
RightShoulder  1.25133 0.865243 23.8008
RightArm  -34.7978 -13.1829 48.3225
RightForeArm  64.7976 -4.78455 -0.715879
RightHand  0.0620304 -6.0402 -14.222
LeftUpLeg  6.90856 -8.15772 -0.681676
LeftLeg  29.1268 -10.3694 -5.85676
LeftFoot  -15.533 -0.00297679 -2.62534
LeftToes  3.79492e-011 -8.60219e-011 1.56273e-011
